<svg xmlns="http://www.w3.org/2000/svg" width="56" height="56" viewBox="0 0 56 56">
	<title>Cicadas</title>
	<g fill="none" fill-rule="evenodd">
		<path fill="white" fill-rule="nonzero" d="M19 53V41.5a1.5 1.5 0 0 1 1.5-1.5h.934C27.307 40.004 30 37.037 30 29.967V22.5c0-.92-.521-1.5-1.5-1.5s-1.5.58-1.5 1.5v6.533C27 33.527 25.17 36 21.436 36H20.5a1.5 1.5 0 0 1-1.5-1.5v-23C19 9.396 17.875 8 16 8s-3 1.396-3 3.5v18a1.5 1.5 0 0 1-1.5 1.5H11c-3.698 0-5-2.088-5-6.733V17.5c0-.98-.578-1.5-1.5-1.5S3 16.52 3 17.5v7.7c0 7.654 2.21 10.797 7.577 10.794l.933.006A1.5 1.5 0 0 1 13 37.5V53h6zm3 1.5a1.5 1.5 0 0 1-1.5 1.5h-9a1.5 1.5 0 0 1-1.5-1.5V38.984C3.11 38.75 0 34.09 0 25.2v-7.7C0 14.786 1.989 13 4.5 13S9 14.786 9 17.5v6.767c0 2.414.19 3.31 1 3.605V11.5C10 7.865 12.308 5 16 5s6 2.865 6 6.5v21.464c1.431-.199 2-1.259 2-3.93V22.5c0-2.51 1.79-4.5 4.5-4.5s4.5 1.99 4.5 4.5v7.467c0 8.447-3.771 12.815-11 13.025V54.5zM47.5 17a8.5 8.5 0 1 1 0-17 8.5 8.5 0 0 1 0 17zm0-3a5.5 5.5 0 1 0 0-11 5.5 5.5 0 0 0 0 11zm-18-4a1.5 1.5 0 0 1 0-3h6a1.5 1.5 0 0 1 0 3h-6zM36.17 16.842a1.5 1.5 0 0 1-1.34-2.684l2-1a1.5 1.5 0 0 1 1.34 2.684l-2 1zM40.842 23.17a1.5 1.5 0 0 1-2.684-1.34l2-4a1.5 1.5 0 0 1 2.684 1.34l-2 4zM49 26.5a1.5 1.5 0 0 1-3 0v-6a1.5 1.5 0 0 1 3 0v6zM55.842 19.83a1.5 1.5 0 0 1-2.684 1.34l-1-2a1.5 1.5 0 0 1 2.684-1.34l1 2zM34.83 2.842A1.5 1.5 0 0 1 36.17.158l2 1a1.5 1.5 0 0 1-1.34 2.684l-2-1z">
		</path>
		<path d="M0 0h56v56H0z">
		</path>
	</g>
</svg>